<svg width="40" height="40" viewBox="0 0 40 40" fill="none" xmlns="http://www.w3.org/2000/svg">
<circle opacity="0.1" cx="20" cy="20" r="19.5" transform="rotate(-90 20 20)" stroke="#141313"/>
<path d="M16.096 13.2645C14.9037 13.9598 13.9594 14.9033 13.2649 16.0964C12.5703 17.2887 12.2227 18.5899 12.2227 20.0001C12.2227 21.4102 12.5703 22.7114 13.2649 23.9045C13.9594 25.0968 14.9037 26.0411 16.096 26.7356C17.2883 27.4302 18.5903 27.7778 20.0004 27.7778C21.4105 27.7778 22.7125 27.4309 23.9049 26.7356C25.098 26.0403 26.0414 25.0968 26.736 23.9037C27.4305 22.7114 27.7782 21.4102 27.7782 20.0001C27.7782 18.5899 27.4305 17.2887 26.736 16.0956C26.0414 14.9033 25.098 13.9591 23.9049 13.2637C22.7125 12.5692 21.4105 12.2223 20.0004 12.2223C18.5903 12.2223 17.2883 12.5692 16.096 13.2645ZM13.5138 20.0001C13.5138 18.4445 14.0115 17.0663 15.0063 15.8623C15.9194 16.5778 16.6708 17.6403 17.2619 19.0512C15.8518 19.8305 14.6742 20.6752 13.7308 21.5875C13.5861 21.0571 13.5138 20.5297 13.5138 20.0001ZM15.956 25.0478C15.2194 24.4614 14.6447 23.7598 14.2293 22.9393C15.1634 21.9966 16.3293 21.1309 17.7293 20.3415C18.196 21.8971 18.4293 23.5413 18.4293 25.2734C18.4293 25.7191 18.4192 26.0558 18.3982 26.2845C17.5061 26.0457 16.6925 25.6335 15.956 25.0478ZM20.0004 26.4867C19.9584 26.4867 19.9071 26.4844 19.8449 26.4789C19.7827 26.4735 19.7313 26.4712 19.6893 26.4712C19.7002 26.2736 19.7049 25.9726 19.7049 25.5682C19.7049 23.4946 19.4194 21.5657 18.8493 19.7823C19.1394 19.6368 19.4661 19.4859 19.8293 19.3312C20.0572 20.3578 20.6118 21.4109 21.4938 22.4897C22.3758 23.5685 23.3037 24.3556 24.2782 24.8534C23.0439 25.9423 21.6182 26.4867 20.0004 26.4867ZM26.4871 20.0001C26.4871 21.4732 26.0305 22.7954 25.119 23.9675C24.1958 23.5001 23.313 22.7822 22.4738 21.8123C21.6338 20.8432 21.1103 19.8811 20.9027 18.9267C22.5617 18.3263 24.2774 17.9211 26.0515 17.7134C26.3417 18.4709 26.4871 19.2332 26.4871 20.0001ZM23.4071 14.4934C24.2362 15.0114 24.916 15.6803 25.4457 16.5001C23.8279 16.6867 22.2513 17.0445 20.716 17.5726C20.6647 16.8477 20.6382 16.1998 20.6382 15.6282C20.6382 15.0067 20.6647 14.3168 20.716 13.5601C21.6804 13.6643 22.5772 13.9754 23.4071 14.4934ZM19.5182 15.4578C19.5182 16.3601 19.5548 17.1946 19.6271 17.9623C19.1192 18.1598 18.6992 18.3356 18.3671 18.4912C17.6624 16.8843 16.8069 15.7441 15.8004 15.0697C16.9002 14.1364 18.1548 13.6277 19.5649 13.5453C19.5338 14.1768 19.5182 14.8146 19.5182 15.4578Z" fill="#141313"/>
</svg>
