<svg width="40" height="40" viewBox="0 0 40 40" fill="none" xmlns="http://www.w3.org/2000/svg">
<circle cx="20" cy="20" r="20" fill="white"/>
<path d="M23.364 13.9261H28.8537V15.2762H23.364V13.9261ZM17.8633 19.2678C19.0768 18.6792 19.7124 17.7838 19.7124 16.4003C19.7124 13.6639 17.7037 13 15.384 13H9V26.735H15.5629C18.0229 26.735 20.3316 25.5356 20.3316 22.7462C20.3316 21.0223 19.5281 19.7476 17.8633 19.2678ZM11.9774 15.3431H14.7704C15.8463 15.3431 16.8121 15.6471 16.8121 16.9135C16.8121 18.0795 16.0609 18.5481 14.996 18.5481H11.9774V15.3431ZM15.1556 24.4031H11.9746V20.6206H15.2189C16.5287 20.6206 17.357 21.1757 17.357 22.5816C17.357 23.9651 16.3691 24.4031 15.1556 24.4031ZM31 21.9066C31 18.9637 29.3022 16.5119 26.2313 16.5119C23.2457 16.5119 21.2149 18.7908 21.2149 21.7782C21.2149 24.8745 23.1383 27 26.2313 27C28.573 27 30.0892 25.9317 30.8184 23.6527H28.4437C28.185 24.5035 27.1338 24.9498 26.3166 24.9498C24.7371 24.9498 23.9116 24.0126 23.9116 22.4198H30.9807C30.989 22.2552 31 22.0823 31 21.9066ZM23.9116 20.696C23.9969 19.3877 24.8582 18.5704 26.146 18.5704C27.4998 18.5704 28.1767 19.3766 28.2951 20.696H23.9116Z" fill="#141313"/>
</svg>
