<svg width="28" height="28" viewBox="0 0 28 28" fill="none" xmlns="http://www.w3.org/2000/svg">
<path d="M12.9635 27.2605L11.3296 22.4404C10.4272 19.7783 8.32658 17.6088 5.56038 16.6712L0.740274 15.0373C-0.247491 14.7024 -0.247327 13.3001 0.740274 12.9653L5.56038 11.3313C8.22245 10.429 10.3919 8.32828 11.3296 5.56213L12.9635 0.742085C13.2984 -0.245681 14.7007 -0.245462 15.0355 0.742085L16.6695 5.56213C17.5719 8.22421 19.6725 10.3937 22.4387 11.3313L27.2588 12.9653C28.2466 13.3001 28.2463 14.7025 27.2588 15.0373L22.4387 16.6712C19.7767 17.5735 17.6072 19.6742 16.6695 22.4404L15.0355 27.2605C14.7007 28.2483 13.2983 28.248 12.9635 27.2605ZM4.49884 14.0012L6.26278 14.5991C9.55683 15.7157 12.2413 18.3151 13.4016 21.738L13.9995 23.5019L14.5975 21.738C15.7141 18.4439 18.3134 15.7594 21.7363 14.5991L23.5002 14.0012L21.7363 13.4033C18.4422 12.2867 15.7577 9.68732 14.5974 6.26443L13.9995 4.50048L13.4016 6.26443C12.285 9.55847 9.68562 12.243 6.26278 13.4033L4.49884 14.0012Z" fill="#141313"/>
</svg>
