<svg width="40" height="40" viewBox="0 0 40 40" fill="none" xmlns="http://www.w3.org/2000/svg">
<circle cx="20" cy="20" r="20" fill="white"/>
<path d="M29.9802 15.5074C29.9326 14.4167 29.7581 13.6668 29.5081 13.017C29.2501 12.3273 28.8533 11.7098 28.3334 11.1965C27.8254 10.6752 27.2103 10.2701 26.5357 10.0135C25.8889 9.76081 25.1508 9.58442 24.0714 9.53633C22.984 9.48417 22.6387 9.47211 19.8807 9.47211C17.1227 9.47211 16.7775 9.48417 15.6941 9.53226C14.6147 9.58035 13.8727 9.75689 13.2298 10.0094C12.5471 10.2701 11.9361 10.6711 11.4281 11.1965C10.9122 11.7098 10.5115 12.3314 10.2574 13.0131C10.0074 13.6668 9.83283 14.4126 9.78524 15.5033C9.73362 16.6022 9.72168 16.951 9.72168 19.7381C9.72168 22.5251 9.73362 22.874 9.78121 23.9688C9.82879 25.0595 10.0035 25.8094 10.2535 26.4592C10.5115 27.1489 10.9122 27.7664 11.4281 28.2797C11.9361 28.801 12.5512 29.2061 13.2258 29.4627C13.8727 29.7154 14.6107 29.8917 15.6902 29.9398C16.7735 29.9881 17.1188 30 19.8768 30C22.6349 30 22.9801 29.9881 24.0635 29.9398C25.1428 29.8917 25.8849 29.7154 26.5278 29.4627C27.893 28.9293 28.9723 27.8386 29.5002 26.4592C29.75 25.8055 29.9247 25.0595 29.9723 23.9688C30.0199 22.874 30.0319 22.5251 30.0319 19.7381C30.0319 16.951 30.0278 16.6022 29.9802 15.5074ZM28.1509 23.8886C28.1072 24.8911 27.9406 25.4325 27.8017 25.7934C27.4603 26.6877 26.7579 27.3975 25.873 27.7424C25.5158 27.8828 24.9762 28.0512 23.988 28.0952C22.9165 28.1434 22.5952 28.1553 19.8848 28.1553C17.1743 28.1553 16.8489 28.1434 15.7814 28.0952C14.7893 28.0512 14.2535 27.8828 13.8964 27.7424C13.456 27.5779 13.0551 27.3173 12.7297 26.9764C12.3924 26.6435 12.1345 26.2425 11.9717 25.7975C11.8328 25.4366 11.6662 24.8911 11.6226 23.8927C11.5749 22.8099 11.5631 22.485 11.5631 19.7461C11.5631 17.0071 11.5749 16.6783 11.6226 15.5996C11.6662 14.5971 11.8328 14.0557 11.9717 13.6948C12.1345 13.2496 12.3924 12.8447 12.7338 12.5157C13.063 12.1749 13.4599 11.9142 13.9004 11.7499C14.2576 11.6095 14.7973 11.4412 15.7854 11.397C16.8569 11.3489 17.1784 11.3368 19.8886 11.3368C22.6031 11.3368 22.9244 11.3489 23.992 11.397C24.9841 11.4412 25.5198 11.6095 25.877 11.7499C26.3174 11.9142 26.7183 12.1749 27.0436 12.5157C27.381 12.8486 27.6389 13.2496 27.8017 13.6948C27.9406 14.0557 28.1072 14.601 28.1509 15.5996C28.1985 16.6824 28.2104 17.0071 28.2104 19.7461C28.2104 22.485 28.1985 22.8058 28.1509 23.8886Z" fill="#141313"/>
<path d="M19.8791 14.465C16.9981 14.465 14.6606 16.8269 14.6606 19.7383C14.6606 22.6497 16.9981 25.0117 19.8791 25.0117C22.7602 25.0117 25.0975 22.6497 25.0975 19.7383C25.0975 16.8269 22.7602 14.465 19.8791 14.465ZM19.8791 23.159C18.01 23.159 16.494 21.6272 16.494 19.7383C16.494 17.8495 18.01 16.3176 19.8791 16.3176C21.7482 16.3176 23.2641 17.8495 23.2641 19.7383C23.2641 21.6272 21.7482 23.159 19.8791 23.159Z" fill="#141313"/>
<path d="M26.5241 14.256C26.5241 14.9357 25.9787 15.4869 25.3059 15.4869C24.6333 15.4869 24.0879 14.9357 24.0879 14.256C24.0879 13.5761 24.6333 13.0252 25.3059 13.0252C25.9787 13.0252 26.5241 13.5761 26.5241 14.256Z" fill="#141313"/>
</svg>
