<svg width="16" height="16" viewBox="0 0 16 16" fill="none" xmlns="http://www.w3.org/2000/svg">
<path d="M6.82509 9.175C7.16676 9.5 7.16676 10.0333 6.82509 10.3583C6.50009 10.6833 5.96676 10.6833 5.64176 10.3583C4.86124 9.57665 4.42285 8.51715 4.42285 7.4125C4.42285 6.30785 4.86124 5.24836 5.64176 4.46667L8.59176 1.51667C9.37345 0.736152 10.4329 0.29776 11.5376 0.29776C12.6422 0.29776 13.7017 0.736152 14.4834 1.51667C15.2639 2.29836 15.7023 3.35786 15.7023 4.4625C15.7023 5.56715 15.2639 6.62665 14.4834 7.40834L13.2418 8.65C13.2501 7.96667 13.1418 7.28334 12.9084 6.63334L13.3001 6.23334C13.5337 6.00224 13.7192 5.72711 13.8457 5.42386C13.9723 5.12061 14.0375 4.79527 14.0375 4.46667C14.0375 4.13807 13.9723 3.81273 13.8457 3.50948C13.7192 3.20623 13.5337 2.9311 13.3001 2.7C13.069 2.46639 12.7939 2.28093 12.4906 2.15435C12.1874 2.02778 11.862 1.96261 11.5334 1.96261C11.2048 1.96261 10.8795 2.02778 10.5762 2.15435C10.273 2.28093 9.99786 2.46639 9.76676 2.7L6.82509 5.64167C6.59148 5.87276 6.40602 6.1479 6.27944 6.45114C6.15287 6.75439 6.0877 7.07973 6.0877 7.40834C6.0877 7.73694 6.15287 8.06228 6.27944 8.36553C6.40602 8.66878 6.59148 8.94391 6.82509 9.175ZM9.17509 5.64167C9.50009 5.31667 10.0334 5.31667 10.3584 5.64167C11.1389 6.42336 11.5773 7.48285 11.5773 8.5875C11.5773 9.69215 11.1389 10.7516 10.3584 11.5333L7.40843 14.4833C6.62674 15.2639 5.56724 15.7022 4.46259 15.7022C3.35795 15.7022 2.29845 15.2639 1.51676 14.4833C0.736243 13.7016 0.297852 12.6422 0.297852 11.5375C0.297852 10.4329 0.736243 9.37336 1.51676 8.59167L2.75843 7.35C2.75009 8.03334 2.85843 8.71667 3.09176 9.375L2.70009 9.76667C2.46648 9.99776 2.28102 10.2729 2.15444 10.5761C2.02787 10.8794 1.9627 11.2047 1.9627 11.5333C1.9627 11.8619 2.02787 12.1873 2.15444 12.4905C2.28102 12.7938 2.46648 13.0689 2.70009 13.3C2.93119 13.5336 3.20632 13.7191 3.50957 13.8457C3.81282 13.9722 4.13816 14.0374 4.46676 14.0374C4.79536 14.0374 5.12071 13.9722 5.42395 13.8457C5.7272 13.7191 6.00233 13.5336 6.23343 13.3L9.17509 10.3583C9.40871 10.1272 9.59417 9.85211 9.72075 9.54886C9.84732 9.24561 9.91249 8.92027 9.91249 8.59167C9.91249 8.26307 9.84732 7.93773 9.72075 7.63448C9.59417 7.33123 9.40871 7.0561 9.17509 6.825C9.09416 6.74916 9.02965 6.65753 8.98554 6.55576C8.94144 6.45399 8.91868 6.34425 8.91868 6.23334C8.91868 6.12242 8.94144 6.01269 8.98554 5.91092C9.02965 5.80915 9.09416 5.71751 9.17509 5.64167Z" fill="white"/>
</svg>
