<svg width="40" height="40" viewBox="0 0 40 40" fill="none" xmlns="http://www.w3.org/2000/svg">
<circle cx="20" cy="20" r="20" fill="#141313" fill-opacity="0.05"/>
<path fill-rule="evenodd" clip-rule="evenodd" d="M23.5845 19.8794L20.0001 25.7918L16.4157 19.8794C14.6772 17.0117 16.6971 13.3091 20.0001 13.3091C23.3031 13.3091 25.323 17.0117 23.5845 19.8794ZM15.0481 20.7439C12.6462 16.7821 15.4368 11.6667 20.0001 11.6667C24.5633 11.6667 27.354 16.7821 24.9521 20.7439L20.5357 28.0287C20.2894 28.4349 19.7108 28.4349 19.4645 28.0287L15.0481 20.7439ZM20.0002 15.7727C19.1119 15.7727 18.3918 16.5081 18.3918 17.4152C18.3918 18.3223 19.1119 19.0576 20.0002 19.0576C20.8886 19.0576 21.6087 18.3223 21.6087 17.4152C21.6087 16.5081 20.8886 15.7727 20.0002 15.7727Z" fill="black"/>
</svg>
