<svg width="48" height="38" viewBox="0 0 48 38" fill="none" xmlns="http://www.w3.org/2000/svg">
<path d="M4.22154 34.1893C1.47487 31.272 0.00020681 28 0.000207273 22.696C0.000208089 13.3627 6.55221 4.99734 16.0802 0.861341L18.4615 4.53601C9.56821 9.34667 7.82955 15.5893 7.13621 19.5253C8.56821 18.784 10.4429 18.5253 12.2802 18.696C17.0909 19.1413 20.8829 23.0907 20.8829 28C20.8829 30.4754 19.8995 32.8493 18.1492 34.5997C16.3989 36.35 14.0249 37.3333 11.5495 37.3333C8.68821 37.3333 5.95221 36.0267 4.22154 34.1893ZM30.8882 34.1893C28.1415 31.272 26.6669 28 26.6669 22.696C26.6669 13.3627 33.2189 4.99734 42.7469 0.861343L45.1282 4.53601C36.2349 9.34667 34.4962 15.5893 33.8029 19.5253C35.2349 18.784 37.1095 18.5253 38.9469 18.696C43.7575 19.1413 47.5469 23.0907 47.5469 28C47.5469 30.4754 46.5635 32.8493 44.8132 34.5997C43.0629 36.35 40.6889 37.3333 38.2135 37.3333C35.3522 37.3333 32.6162 36.0267 30.8855 34.1893L30.8882 34.1893Z" fill="white"/>
</svg>
