<svg width="200" height="88" viewBox="0 0 200 88" fill="none" xmlns="http://www.w3.org/2000/svg">
<path d="M74.5805 47.8586V35.4875C74.5805 34.7632 74.5226 33.2808 74.4067 31.0403L75.9567 36.4726L79.6361 47.8586H82.6782L86.3577 36.4726C86.4124 36.302 86.4721 36.1095 86.5367 35.8952L86.6167 35.6275C86.9324 34.561 87.353 33.032 87.8787 31.0403C87.7918 33.1649 87.7459 34.3673 87.7411 34.6474C87.7363 34.9274 87.7338 35.2075 87.7338 35.4875V47.8586H91.5292V27.4478H85.8362L82.0843 39.4278L81.1717 42.7016L80.4763 39.9637L80.1576 38.8628L76.5072 27.4478H70.7852V47.8586H74.5805ZM99.1811 48.1484C101.48 48.1484 103.199 47.1199 104.338 45.0628H104.425C104.522 46.0382 104.814 46.777 105.302 47.2792C105.789 47.7814 106.545 48.0325 107.569 48.0325C107.858 48.0325 108.112 48.0228 108.329 48.0035C108.546 47.9842 108.752 47.96 108.945 47.9311C109.138 47.9021 109.331 47.8635 109.524 47.8152C109.717 47.7669 109.935 47.7138 110.176 47.6558V45.454C109.886 45.5119 109.587 45.5409 109.278 45.5409C108.814 45.5409 108.484 45.3743 108.286 45.0411C108.088 44.7079 107.989 44.1019 107.989 43.2231V37.5156C107.989 35.7193 107.453 34.3335 106.381 33.3581C105.309 32.3827 103.783 31.895 101.803 31.895C99.8427 31.895 98.2951 32.2885 97.1603 33.0756C96.0256 33.8627 95.3278 35.0192 95.0671 36.545L99.3115 36.7478C99.3984 35.9559 99.6181 35.3886 99.9706 35.0457C100.323 34.7029 100.876 34.5315 101.629 34.5315C102.441 34.5315 103.025 34.7801 103.382 35.2775C103.739 35.7749 103.918 36.5354 103.918 37.5591V38.3558L100.543 38.4137C98.5341 38.433 97.001 38.8676 95.9435 39.7175C94.886 40.5673 94.3573 41.8035 94.3573 43.4259C94.3573 44.9228 94.7822 46.0841 95.6321 46.9098C96.4819 47.7355 97.6649 48.1484 99.1811 48.1484ZM100.485 45.3091C99.9151 45.3091 99.4588 45.128 99.116 44.7659C98.7731 44.4037 98.6017 43.8508 98.6017 43.1072C98.6017 42.5278 98.7055 42.0642 98.9131 41.7166C99.1208 41.3689 99.4226 41.1106 99.8185 40.9415C100.214 40.7725 100.886 40.6687 101.832 40.6301L103.918 40.6011V41.3979C103.918 42.0835 103.768 42.733 103.469 43.3462C103.17 43.9595 102.757 44.4399 102.23 44.7876C101.704 45.1353 101.122 45.3091 100.485 45.3091ZM116.104 47.8586V40.1665C116.104 38.5538 116.387 37.3369 116.952 36.5161C117.517 35.6952 118.306 35.2847 119.32 35.2847C119.822 35.2847 120.402 35.3572 121.058 35.502V32.0978C120.74 31.9529 120.32 31.8805 119.798 31.8805C119.161 31.8805 118.63 31.9892 118.205 32.2065C117.78 32.4237 117.413 32.7569 117.104 33.206C116.795 33.6551 116.442 34.4301 116.046 35.531H115.988C115.988 35.2413 115.964 34.6546 115.916 33.7709C115.868 32.8873 115.829 32.3586 115.8 32.1847H111.918C111.947 32.629 111.973 33.1384 111.997 33.713C112.022 34.2876 112.034 35.0047 112.034 35.8642V47.8586H116.104ZM127.566 48.1194C128.85 48.1194 129.995 47.9552 130.999 47.6269V45.1063C130.41 45.2415 129.956 45.3091 129.637 45.3091C129.029 45.3091 128.58 45.128 128.29 44.7659C128.001 44.4037 127.856 43.8412 127.856 43.0782V34.9371H130.825V32.1847H127.856V28.5053H125.306L124.031 32.1847H121.844V34.9371H123.829V44.1792C123.829 45.5022 124.152 46.4897 124.799 47.1416C125.446 47.7935 126.368 48.1194 127.566 48.1194ZM137.478 29.3599V26.3613H133.407V29.3599H137.478ZM137.478 47.8586V32.1847H133.407V47.8586H137.478ZM145.695 47.8586V39.4567C145.695 38.1337 145.996 37.0496 146.6 36.2046C147.204 35.3596 147.998 34.9371 148.983 34.9371C150.847 34.9371 151.779 36.3133 151.779 39.0656V47.8586H155.835V37.9067C155.835 35.9366 155.391 34.4397 154.502 33.416C153.614 32.3924 152.339 31.8805 150.678 31.8805C149.529 31.8805 148.539 32.1509 147.708 32.6917C146.878 33.2326 146.187 34.1017 145.637 35.2992H145.579C145.579 34.9998 145.555 34.4518 145.506 33.6551C145.458 32.8583 145.419 32.3682 145.39 32.1847H141.508C141.537 32.6096 141.564 33.0901 141.588 33.6261C141.612 34.1621 141.624 34.8502 141.624 35.6904V47.8586H145.695ZM166.645 48.1484C169.136 48.1484 171.087 47.4265 172.497 45.9827C173.907 44.5389 174.612 42.5471 174.612 40.0072C174.612 37.39 173.938 35.3837 172.591 33.9882C171.244 32.5927 169.291 31.895 166.732 31.895C164.23 31.895 162.284 32.6169 160.894 34.0607C159.503 35.5044 158.808 37.4866 158.808 40.0072C158.808 42.5374 159.503 44.5268 160.894 45.9755C162.284 47.4241 164.201 48.1484 166.645 48.1484ZM166.601 45.367C165.462 45.367 164.59 44.9107 163.987 43.9981C163.383 43.0855 163.081 41.7552 163.081 40.0072C163.081 36.4629 164.317 34.6908 166.79 34.6908C167.949 34.6908 168.832 35.1109 169.441 35.9511C170.049 36.7913 170.353 38.1433 170.353 40.0072C170.353 43.5804 169.103 45.367 166.601 45.367Z" fill="white"/>
<path opacity="0.595853" d="M111.134 60.6403C111.443 60.6403 111.729 60.5909 111.993 60.4921C112.256 60.3933 112.478 60.2616 112.658 60.0969C112.838 59.9323 112.987 59.7651 113.106 59.5954C113.225 59.4257 113.323 59.2496 113.399 59.0672L112.502 58.7861C112.391 59.0647 112.212 59.3003 111.966 59.4928C111.721 59.6853 111.438 59.7816 111.119 59.7816C110.628 59.7816 110.235 59.5764 109.941 59.166C109.647 58.7557 109.5 58.1984 109.5 57.4942C109.5 56.8001 109.646 56.2467 109.937 55.8338C110.229 55.4209 110.622 55.2144 111.119 55.2144C111.641 55.2144 112.064 55.5057 112.388 56.0883L113.247 55.8072C113.069 55.3968 112.8 55.0523 112.437 54.7737C112.075 54.495 111.641 54.3557 111.134 54.3557C110.349 54.3557 109.708 54.6382 109.212 55.203C108.715 55.7679 108.467 56.5316 108.467 57.4942C108.467 58.472 108.719 59.2408 109.223 59.8006C109.727 60.3604 110.364 60.6403 111.134 60.6403ZM115.868 60.6403C116.172 60.6403 116.445 60.5896 116.685 60.4883C116.926 60.387 117.12 60.2565 117.267 60.0969C117.414 59.9374 117.535 59.7524 117.631 59.5422C117.728 59.332 117.795 59.1255 117.833 58.9229C117.871 58.7202 117.89 58.5176 117.89 58.3149C117.89 57.6614 117.718 57.1092 117.373 56.6583C117.029 56.2074 116.527 55.982 115.868 55.982C115.205 55.982 114.701 56.2074 114.356 56.6583C114.012 57.1092 113.839 57.6614 113.839 58.3149C113.839 58.5277 113.858 58.7367 113.896 58.9419C113.934 59.147 114.003 59.3548 114.102 59.565C114.2 59.7752 114.325 59.9576 114.474 60.1121C114.623 60.2667 114.818 60.3933 115.059 60.4921C115.3 60.5909 115.57 60.6403 115.868 60.6403ZM115.868 59.8196C115.59 59.8196 115.347 59.6955 115.139 59.4472C114.931 59.199 114.827 58.8215 114.827 58.3149C114.827 57.7982 114.932 57.4169 115.143 57.1712C115.353 56.9255 115.595 56.8027 115.868 56.8027C116.142 56.8027 116.383 56.9255 116.59 57.1712C116.798 57.4169 116.902 57.7982 116.902 58.3149C116.902 58.8215 116.798 59.199 116.59 59.4472C116.383 59.6955 116.142 59.8196 115.868 59.8196ZM119.721 60.5035V54.2949H118.764V60.5035H119.721ZM122.624 60.6403C122.928 60.6403 123.2 60.5896 123.441 60.4883C123.682 60.387 123.876 60.2565 124.022 60.0969C124.169 59.9374 124.291 59.7524 124.387 59.5422C124.483 59.332 124.551 59.1255 124.589 58.9229C124.627 58.7202 124.646 58.5176 124.646 58.3149C124.646 57.6614 124.473 57.1092 124.129 56.6583C123.784 56.2074 123.283 55.982 122.624 55.982C121.961 55.982 121.456 56.2074 121.112 56.6583C120.767 57.1092 120.595 57.6614 120.595 58.3149C120.595 58.5277 120.614 58.7367 120.652 58.9419C120.69 59.147 120.759 59.3548 120.857 59.565C120.956 59.7752 121.08 59.9576 121.23 60.1121C121.379 60.2667 121.574 60.3933 121.815 60.4921C122.056 60.5909 122.325 60.6403 122.624 60.6403ZM122.624 59.8196C122.346 59.8196 122.102 59.6955 121.895 59.4472C121.687 59.199 121.583 58.8215 121.583 58.3149C121.583 57.7982 121.688 57.4169 121.898 57.1712C122.109 56.9255 122.351 56.8027 122.624 56.8027C122.898 56.8027 123.138 56.9255 123.346 57.1712C123.554 57.4169 123.658 57.7982 123.658 58.3149C123.658 58.8215 123.554 59.199 123.346 59.4472C123.138 59.6955 122.898 59.8196 122.624 59.8196ZM126.401 60.5035V58.2693C126.401 57.8438 126.488 57.5031 126.663 57.2472C126.838 56.9914 127.09 56.8635 127.419 56.8635C127.607 56.8635 127.797 56.8939 127.989 56.9547V56.0807C127.842 56.0149 127.652 55.982 127.419 55.982C127.171 55.982 126.957 56.0427 126.777 56.1643C126.597 56.2859 126.459 56.4278 126.363 56.5899V56.1187H125.436V60.5035H126.401ZM130.064 60.6403C130.616 60.6403 131.043 60.5149 131.344 60.2641C131.646 60.0134 131.796 59.7081 131.796 59.3484C131.796 58.7658 131.346 58.3301 130.444 58.0414C130.418 58.0312 130.378 58.0186 130.322 58.0034C130.109 57.9324 129.945 57.8742 129.828 57.8286C129.712 57.783 129.599 57.7108 129.49 57.612C129.381 57.5132 129.327 57.4005 129.327 57.2738C129.327 57.1218 129.389 56.999 129.513 56.9053C129.637 56.8115 129.816 56.7647 130.049 56.7647C130.474 56.7647 130.836 56.9699 131.135 57.3802L131.774 56.9927C131.617 56.6988 131.379 56.4569 131.059 56.2669C130.74 56.0769 130.401 55.982 130.041 55.982C129.56 55.982 129.157 56.0985 128.833 56.3315C128.509 56.5646 128.346 56.8736 128.346 57.2586C128.346 57.4562 128.382 57.6297 128.453 57.7792C128.524 57.9286 128.628 58.0527 128.764 58.1515C128.901 58.2503 129.032 58.3289 129.156 58.3871C129.28 58.4454 129.433 58.5049 129.615 58.5657C129.636 58.5708 129.669 58.5809 129.714 58.5961C129.968 58.6772 130.158 58.7417 130.284 58.7899C130.411 58.838 130.531 58.9102 130.645 59.0065C130.759 59.1027 130.816 59.2142 130.816 59.3408C130.816 59.4979 130.747 59.6233 130.607 59.717C130.468 59.8107 130.279 59.8576 130.041 59.8576C129.555 59.8576 129.16 59.6347 128.856 59.1888L128.164 59.5916C128.341 59.9158 128.596 60.1717 128.928 60.3591C129.26 60.5466 129.638 60.6403 130.064 60.6403ZM136.227 60.6403C136.531 60.6403 136.803 60.5896 137.044 60.4883C137.284 60.387 137.478 60.2565 137.625 60.0969C137.772 59.9374 137.894 59.7524 137.99 59.5422C138.086 59.332 138.153 59.1255 138.191 58.9229C138.229 58.7202 138.248 58.5176 138.248 58.3149C138.248 57.6614 138.076 57.1092 137.731 56.6583C137.387 56.2074 136.885 55.982 136.227 55.982C135.563 55.982 135.059 56.2074 134.715 56.6583C134.37 57.1092 134.198 57.6614 134.198 58.3149C134.198 58.5277 134.217 58.7367 134.255 58.9419C134.293 59.147 134.361 59.3548 134.46 59.565C134.559 59.7752 134.683 59.9576 134.832 60.1121C134.982 60.2667 135.177 60.3933 135.418 60.4921C135.658 60.5909 135.928 60.6403 136.227 60.6403ZM136.227 59.8196C135.948 59.8196 135.705 59.6955 135.497 59.4472C135.29 59.199 135.186 58.8215 135.186 58.3149C135.186 57.7982 135.291 57.4169 135.501 57.1712C135.711 56.9255 135.953 56.8027 136.227 56.8027C136.5 56.8027 136.741 56.9255 136.949 57.1712C137.156 57.4169 137.26 57.7982 137.26 58.3149C137.26 58.8215 137.156 59.199 136.949 59.4472C136.741 59.6955 136.5 59.8196 136.227 59.8196ZM140.338 60.5035V56.9395H141.25V56.1187H140.338V55.716C140.338 55.5032 140.375 55.3487 140.448 55.2524C140.522 55.1562 140.637 55.108 140.794 55.108H141.349V54.2949H140.657C140.247 54.2949 139.929 54.4076 139.703 54.6331C139.478 54.8585 139.365 55.1967 139.365 55.6476V56.1187H138.697V56.9395H139.365V60.5035H140.338ZM144.054 62.2969C144.434 62.2969 144.752 62.2057 145.008 62.0234C145.264 61.841 145.473 61.5269 145.635 61.081L147.451 56.1187H146.402L145.711 58.3757C145.549 58.9583 145.455 59.2952 145.43 59.3864H145.399C145.333 59.128 145.237 58.7911 145.11 58.3757L144.358 56.1187H143.302L144.943 60.3971L144.799 60.8303C144.713 61.0734 144.597 61.2444 144.453 61.3432C144.309 61.442 144.122 61.4914 143.894 61.4914H143.758V62.2969H144.054ZM149.807 60.6403C150.111 60.6403 150.383 60.5896 150.624 60.4883C150.864 60.387 151.058 60.2565 151.205 60.0969C151.352 59.9374 151.473 59.7524 151.57 59.5422C151.666 59.332 151.733 59.1255 151.771 58.9229C151.809 58.7202 151.828 58.5176 151.828 58.3149C151.828 57.6614 151.656 57.1092 151.311 56.6583C150.967 56.2074 150.465 55.982 149.807 55.982C149.143 55.982 148.639 56.2074 148.294 56.6583C147.95 57.1092 147.778 57.6614 147.778 58.3149C147.778 58.5277 147.797 58.7367 147.835 58.9419C147.873 59.147 147.941 59.3548 148.04 59.565C148.139 59.7752 148.263 59.9576 148.412 60.1121C148.562 60.2667 148.757 60.3933 148.997 60.4921C149.238 60.5909 149.508 60.6403 149.807 60.6403ZM149.807 59.8196C149.528 59.8196 149.285 59.6955 149.077 59.4472C148.869 59.199 148.766 58.8215 148.766 58.3149C148.766 57.7982 148.871 57.4169 149.081 57.1712C149.291 56.9255 149.533 56.8027 149.807 56.8027C150.08 56.8027 150.321 56.9255 150.529 57.1712C150.736 57.4169 150.84 57.7982 150.84 58.3149C150.84 58.8215 150.736 59.199 150.529 59.4472C150.321 59.6955 150.08 59.8196 149.807 59.8196ZM154.039 60.6403C154.338 60.6403 154.588 60.5719 154.788 60.4351C154.988 60.2983 155.124 60.1514 155.195 59.9944H155.202V60.5035H156.129V56.1187H155.172V58.5733C155.172 58.9127 155.091 59.2053 154.929 59.451C154.766 59.6967 154.541 59.8196 154.252 59.8196C153.771 59.8196 153.53 59.4776 153.53 58.7937V56.1187H152.565V58.9153C152.565 59.2446 152.611 59.5283 152.702 59.7664C152.793 60.0045 152.915 60.1831 153.067 60.3021C153.219 60.4212 153.375 60.5073 153.534 60.5605C153.694 60.6137 153.862 60.6403 154.039 60.6403ZM158.143 60.5035V58.2693C158.143 57.8438 158.23 57.5031 158.405 57.2472C158.58 56.9914 158.832 56.8635 159.161 56.8635C159.349 56.8635 159.539 56.8939 159.731 56.9547V56.0807C159.584 56.0149 159.394 55.982 159.161 55.982C158.913 55.982 158.699 56.0427 158.519 56.1643C158.339 56.2859 158.201 56.4278 158.105 56.5899V56.1187H157.178V60.5035H158.143ZM163.174 60.5035V54.2949H162.216V60.5035H163.174ZM165.385 55.4652V54.4089H164.352V55.4652H165.385ZM165.347 60.5035V56.1187H164.397V60.5035H165.347ZM167.787 60.5035V56.9395H168.698V56.1187H167.787V55.716C167.787 55.5032 167.823 55.3487 167.897 55.2524C167.97 55.1562 168.085 55.108 168.242 55.108H168.797V54.2949H168.106C167.695 54.2949 167.377 54.4076 167.152 54.6331C166.927 54.8585 166.814 55.1967 166.814 55.6476V56.1187H166.145V56.9395H166.814V60.5035H167.787ZM171.153 60.6403C171.629 60.6403 172.027 60.5314 172.346 60.3135C172.665 60.0957 172.896 59.8246 173.038 59.5004L172.232 59.2268C172.136 59.4143 171.995 59.5675 171.81 59.6866C171.625 59.8056 171.411 59.8652 171.168 59.8652C170.819 59.8652 170.544 59.7448 170.344 59.5042C170.144 59.2636 170.043 58.9761 170.043 58.6417H173.083C173.098 58.515 173.106 58.3858 173.106 58.2541C173.106 57.5803 172.919 57.0332 172.544 56.6127C172.169 56.1922 171.693 55.982 171.115 55.982C170.527 55.982 170.04 56.1909 169.652 56.6089C169.265 57.0269 169.071 57.5879 169.071 58.2921C169.071 59.0065 169.265 59.5764 169.652 60.002C170.04 60.4275 170.54 60.6403 171.153 60.6403ZM172.126 57.9654H170.059C170.064 57.6411 170.161 57.3587 170.351 57.118C170.541 56.8774 170.796 56.7571 171.115 56.7571C171.434 56.7571 171.682 56.8749 171.86 57.1104C172.037 57.346 172.126 57.631 172.126 57.9654Z" fill="white"/>
<path d="M34.7543 29.9057V60.1707C34.7542 60.4604 34.605 60.7283 34.3622 60.8752C34.1193 61.0222 33.8189 61.0261 33.5725 60.8856L26.4099 56.7958C26.157 56.6517 26.0001 56.378 26 56.0809L26 25.8158C26.0001 25.5262 26.1493 25.2582 26.3922 25.1113C26.635 24.9644 26.9354 24.9604 27.1818 25.1009L34.3445 29.1908C34.5973 29.3349 34.7542 29.6086 34.7543 29.9057Z" fill="white"/>
<path d="M46.4262 29.9076V60.1727C46.4261 60.4623 46.2769 60.7303 46.034 60.8772C45.7912 61.0241 45.4908 61.0281 45.2444 60.8876L38.0817 56.7977C37.8289 56.6536 37.672 56.3799 37.6719 56.0828L37.6719 25.8178C37.672 25.5281 37.8212 25.2602 38.0641 25.1132C38.3069 24.9663 38.6073 24.9624 38.8537 25.1029L46.0163 29.1927C46.2692 29.3368 46.4261 29.6105 46.4262 29.9076Z" fill="white"/>
<path d="M58.0981 29.9076V60.1727C58.0979 60.4623 57.9488 60.7303 57.7059 60.8772C57.463 61.0241 57.1627 61.0281 56.9162 60.8876L49.7536 56.7977C49.5008 56.6536 49.3439 56.3799 49.3438 56.0828L49.3438 25.8178C49.3439 25.5281 49.4931 25.2602 49.7359 25.1132C49.9788 24.9663 50.2791 24.9624 50.5256 25.1029L57.6882 29.1927C57.941 29.3368 58.0979 29.6105 58.0981 29.9076Z" fill="white"/>
</svg>
