<svg width="200" height="88" viewBox="0 0 200 88" fill="none" xmlns="http://www.w3.org/2000/svg">
<path d="M78.9645 48.5425C82.9089 48.5425 85.5279 46.7124 85.5279 43.5569C85.5279 40.3901 82.9255 39.399 80.4273 38.6537L80.1396 38.5687C77.9402 37.9235 75.9037 37.4126 75.9037 35.6998C75.9037 34.343 77.0082 33.491 78.933 33.491C80.6054 33.491 81.8045 34.1852 82.3409 35.6683L84.8968 34.6585C84.1711 32.4497 81.9938 31.2191 78.9645 31.2191C75.3042 31.2191 72.9376 32.9861 72.9376 35.8576C72.9376 41.569 82.4987 39.7704 82.4987 43.7778C82.4987 45.324 81.1418 46.2075 79.0592 46.2075C76.7557 46.2075 75.2095 45.1978 74.6731 43.4938L72.1172 44.5036C73.0007 47.1541 75.5251 48.5425 78.9645 48.5425ZM103.535 53.8437V31.5662H101.042V34.6585C99.717 32.5128 97.5081 31.2191 94.7313 31.2191C89.9981 31.2191 86.6218 34.9425 86.6218 39.8966C86.6218 44.8507 90.0928 48.5425 94.7944 48.5425C97.4135 48.5425 99.5276 47.375 100.853 45.4502V53.8437H103.535ZM95.11 46.1759C91.7652 46.1759 89.2724 43.4938 89.2724 39.8966C89.2724 36.2678 91.7652 33.5857 95.11 33.5857C98.5494 33.5857 100.948 36.2047 100.948 39.8966C100.948 43.5885 98.581 46.1759 95.11 46.1759ZM113.37 48.5425C115.831 48.5425 117.819 47.375 118.923 45.8288V48.1954H121.479V31.5662H118.797V42.0107C118.765 44.1249 116.872 46.1444 114.064 46.1444C111.224 46.1759 109.425 44.3142 109.425 41.5059V31.5662H106.743V41.8214C106.743 45.7657 109.11 48.5425 113.37 48.5425ZM132.039 48.5425C134.848 48.5425 137.025 47.2173 138.287 45.0084V48.1954H140.78V31.5662H138.287V34.7847C137.025 32.639 134.848 31.3768 132.039 31.3768C127.338 31.3768 123.867 34.9425 123.867 39.865C123.867 44.8507 127.306 48.5425 132.039 48.5425ZM132.355 46.1759C129.01 46.1759 126.517 43.4938 126.517 39.865C126.517 36.2993 129.01 33.5857 132.355 33.5857C135.826 33.5857 138.193 36.1731 138.193 39.865C138.193 43.5885 135.794 46.1759 132.355 46.1759ZM146.891 48.1954V38.1611C146.891 35.7945 149.005 33.7434 152.035 33.7119V31.2191C149.699 31.2191 147.806 32.4497 146.733 33.9959V31.5662H144.209V48.1954H146.891ZM160.386 48.5741C164.33 48.5741 166.634 46.8701 167.864 44.5036L165.529 43.0836C164.709 45.0084 163.194 46.0497 160.481 46.0497C157.42 46.0497 154.99 43.9671 154.517 40.8748H168.338C168.369 40.5592 168.401 39.9912 168.401 39.5179C168.401 35.1318 165.214 31.1875 160.197 31.1875C155.495 31.1875 151.803 35.0687 151.803 39.8966C151.803 44.8507 155.274 48.5741 160.386 48.5741ZM165.656 38.5397H154.548C155.053 35.3843 157.483 33.5225 160.291 33.5225C163.068 33.5225 165.245 35.4158 165.656 38.5397Z" fill="white"/>
<path d="M110.689 58.3515C110.776 58.3515 110.867 58.3459 110.963 58.3348C111.059 58.3238 111.164 58.3071 111.277 58.2849V57.9965H111.211C110.898 57.9965 110.674 57.9589 110.541 57.8837C110.408 57.8085 110.303 57.6674 110.227 57.4603C110.193 57.374 110.146 57.1996 110.087 56.9371C110.027 56.6745 109.956 56.4755 109.872 56.3399C109.798 56.2166 109.697 56.1137 109.569 56.0311C109.441 55.9485 109.282 55.8814 109.092 55.8296C109.499 55.7408 109.804 55.5911 110.009 55.3803C110.213 55.1695 110.316 54.9002 110.316 54.5723C110.316 54.1113 110.167 53.7693 109.868 53.5462C109.57 53.3231 109.112 53.2115 108.493 53.2115H106.562V53.5148L106.991 53.5591L107.121 53.6664V57.8375L106.991 57.9447L106.562 57.9817V58.2923H108.363V57.9817L107.931 57.9447L107.801 57.8375V56.0367L107.827 56.033C107.99 56.0256 108.108 56.0219 108.182 56.0219C108.53 56.0219 108.789 56.081 108.961 56.1994C109.132 56.3177 109.268 56.5309 109.369 56.8391C109.396 56.9204 109.432 57.0437 109.476 57.2089C109.595 57.6674 109.744 57.9755 109.924 58.1333C110.01 58.2073 110.115 58.2621 110.24 58.2979C110.364 58.3336 110.514 58.3515 110.689 58.3515ZM108.219 55.678C108.155 55.678 108.088 55.6774 108.019 55.6761C107.95 55.6749 107.878 55.673 107.801 55.6706V53.5591H108.167C108.658 53.5591 109.013 53.6442 109.232 53.8143C109.452 53.9844 109.561 54.258 109.561 54.6352C109.561 55 109.455 55.2651 109.242 55.4302C109.028 55.5954 108.688 55.678 108.219 55.678ZM112.648 58.3589C112.892 58.3589 113.135 58.3207 113.377 58.2443C113.618 58.1678 113.851 58.0557 114.075 57.9078V57.4899C113.849 57.6403 113.638 57.7512 113.445 57.8227C113.251 57.8942 113.065 57.9299 112.885 57.9299C112.495 57.9299 112.186 57.7913 111.957 57.5139C111.727 57.2366 111.613 56.86 111.613 56.3843V56.2992H114.064C114.069 56.2696 114.072 56.2388 114.074 56.2068C114.075 56.1747 114.075 56.1279 114.075 56.0662C114.075 55.6052 113.953 55.241 113.708 54.9735C113.462 54.7061 113.13 54.5723 112.711 54.5723C112.198 54.5723 111.779 54.7517 111.452 55.1104C111.125 55.469 110.962 55.9319 110.962 56.4989C110.962 57.0511 111.118 57.4991 111.43 57.843C111.742 58.1869 112.148 58.3589 112.648 58.3589ZM113.399 55.9812H111.65C111.672 55.673 111.775 55.4185 111.958 55.2176C112.142 55.0167 112.36 54.9162 112.611 54.9162C112.868 54.9162 113.063 54.9976 113.197 55.1603C113.332 55.323 113.399 55.5572 113.399 55.8629V55.9812ZM115.435 58.3441C115.613 58.3441 115.803 58.304 116.007 58.2239C116.21 58.1438 116.434 58.0199 116.678 57.8523L116.778 58.2923H117.843V58.0187L117.443 57.9817L117.314 57.8597V55.6632C117.314 55.2811 117.224 55.0037 117.044 54.8312C116.864 54.6586 116.575 54.5723 116.179 54.5723C115.727 54.5723 115.359 54.6537 115.075 54.8164C114.79 54.9791 114.648 55.1837 114.648 55.4302C114.648 55.519 114.664 55.58 114.698 55.6133C114.731 55.6465 114.793 55.6632 114.884 55.6632H115.406V55.0272C115.507 54.9877 115.604 54.9581 115.698 54.9384C115.791 54.9187 115.886 54.9088 115.983 54.9088C116.239 54.9088 116.419 54.9705 116.522 55.0937C116.626 55.217 116.678 55.4376 116.678 55.7556V55.996C115.734 56.2228 115.129 56.4286 114.864 56.6135C114.599 56.7984 114.466 57.0523 114.466 57.3753C114.466 57.6662 114.555 57.9004 114.731 58.0778C114.907 58.2553 115.142 58.3441 115.435 58.3441ZM115.738 57.9373C115.554 57.9373 115.406 57.8812 115.297 57.7691C115.187 57.6569 115.132 57.5059 115.132 57.3161C115.132 57.0794 115.231 56.8884 115.43 56.7429C115.628 56.5975 116.044 56.4373 116.678 56.2622V57.5971C116.478 57.7105 116.301 57.7956 116.147 57.8523C115.993 57.909 115.857 57.9373 115.738 57.9373ZM119.72 58.2923V58.0187L119.287 57.9817L119.151 57.8597V52.7197H118.862L117.938 52.9897V53.2263H118.522V57.8597L118.393 57.9817L117.945 58.0187V58.2923H119.72ZM125.62 58.2923V57.0573H125.228L125.098 57.8227L124.991 57.9447H122.961V55.8222H124.204L124.311 55.9368L124.385 56.4841H124.743V54.8164H124.385L124.311 55.3674L124.204 55.4746H122.961V53.5591H124.714L124.817 53.6738L124.925 54.3172H125.35V53.2115H121.722V53.5148L122.151 53.5591L122.281 53.6664V57.8375L122.151 57.9447L121.722 57.9817V58.2923H125.62ZM126.883 58.3589C127.327 58.3589 127.674 58.2584 127.924 58.0575C128.175 57.8566 128.3 57.5786 128.3 57.2237C128.3 57.0881 128.275 56.9642 128.226 56.852C128.176 56.7399 128.105 56.6468 128.011 56.5728C127.883 56.4668 127.676 56.3485 127.39 56.2179C127.309 56.1809 127.248 56.1525 127.209 56.1328C126.957 56.012 126.787 55.9023 126.699 55.8037C126.61 55.7051 126.565 55.5855 126.565 55.445C126.565 55.2724 126.621 55.1381 126.732 55.0419C126.843 54.9458 126.997 54.8977 127.194 54.8977C127.285 54.8977 127.376 54.9113 127.468 54.9384C127.559 54.9655 127.655 55.0062 127.756 55.0604L127.815 55.5966H128.189V54.7387C128.061 54.6845 127.923 54.6432 127.776 54.6149C127.63 54.5865 127.471 54.5723 127.301 54.5723C126.875 54.5723 126.544 54.6648 126.31 54.8497C126.076 55.0346 125.959 55.2959 125.959 55.6336C125.959 55.8555 126.027 56.0416 126.164 56.192C126.301 56.3423 126.559 56.5026 126.939 56.6727C127.274 56.8255 127.486 56.9519 127.575 57.0517C127.664 57.1515 127.708 57.2779 127.708 57.4307C127.708 57.6132 127.643 57.7605 127.514 57.8726C127.384 57.9848 127.213 58.0409 126.998 58.0409C126.89 58.0409 126.782 58.0261 126.675 57.9965C126.567 57.9669 126.461 57.9213 126.355 57.8597L126.262 57.2163H125.9V58.1999C126.04 58.2541 126.194 58.2942 126.36 58.3201C126.527 58.3459 126.701 58.3589 126.883 58.3589ZM129.811 58.3145C129.966 58.3145 130.128 58.3003 130.296 58.272C130.463 58.2436 130.633 58.2023 130.806 58.1481V57.8671C130.712 57.8893 130.622 57.9053 130.534 57.9151C130.447 57.925 130.362 57.9299 130.281 57.9299C130.044 57.9299 129.88 57.8739 129.789 57.7617C129.698 57.6495 129.652 57.4295 129.652 57.1016V55.1048H130.806V54.7498H129.652V53.9437H129.371L129.046 54.65L128.546 54.8682V55.1048H129.023V57.5491C129.023 57.84 129.082 58.0403 129.199 58.15C129.316 58.2597 129.52 58.3145 129.811 58.3145ZM131.922 58.3441C132.099 58.3441 132.29 58.304 132.493 58.2239C132.696 58.1438 132.92 58.0199 133.164 57.8523L133.264 58.2923H134.329V58.0187L133.929 57.9817L133.8 57.8597V55.6632C133.8 55.2811 133.71 55.0037 133.53 54.8312C133.35 54.6586 133.062 54.5723 132.665 54.5723C132.214 54.5723 131.846 54.6537 131.561 54.8164C131.276 54.9791 131.134 55.1837 131.134 55.4302C131.134 55.519 131.151 55.58 131.184 55.6133C131.217 55.6465 131.279 55.6632 131.371 55.6632H131.892V55.0272C131.993 54.9877 132.09 54.9581 132.184 54.9384C132.278 54.9187 132.373 54.9088 132.469 54.9088C132.725 54.9088 132.905 54.9705 133.009 55.0937C133.112 55.217 133.164 55.4376 133.164 55.7556V55.996C132.22 56.2228 131.615 56.4286 131.35 56.6135C131.085 56.7984 130.953 57.0523 130.953 57.3753C130.953 57.6662 131.041 57.9004 131.217 58.0778C131.393 58.2553 131.628 58.3441 131.922 58.3441ZM132.225 57.9373C132.04 57.9373 131.893 57.8812 131.783 57.7691C131.673 57.6569 131.618 57.5059 131.618 57.3161C131.618 57.0794 131.718 56.8884 131.916 56.7429C132.114 56.5975 132.53 56.4373 133.164 56.2622V57.5971C132.964 57.7105 132.787 57.7956 132.633 57.8523C132.479 57.909 132.343 57.9373 132.225 57.9373ZM135.674 58.3145C135.829 58.3145 135.991 58.3003 136.158 58.272C136.326 58.2436 136.496 58.2023 136.669 58.1481V57.8671C136.575 57.8893 136.484 57.9053 136.397 57.9151C136.309 57.925 136.225 57.9299 136.143 57.9299C135.907 57.9299 135.743 57.8739 135.652 57.7617C135.56 57.6495 135.515 57.4295 135.515 57.1016V55.1048H136.669V54.7498H135.515V53.9437H135.234L134.908 54.65L134.409 54.8682V55.1048H134.886V57.5491C134.886 57.84 134.945 58.0403 135.062 58.15C135.179 58.2597 135.383 58.3145 135.674 58.3145ZM138.465 58.3589C138.709 58.3589 138.952 58.3207 139.193 58.2443C139.435 58.1678 139.668 58.0557 139.892 57.9078V57.4899C139.665 57.6403 139.455 57.7512 139.262 57.8227C139.068 57.8942 138.881 57.9299 138.701 57.9299C138.312 57.9299 138.002 57.7913 137.773 57.5139C137.544 57.2366 137.429 56.86 137.429 56.3843V56.2992H139.881C139.886 56.2696 139.889 56.2388 139.89 56.2068C139.891 56.1747 139.892 56.1279 139.892 56.0662C139.892 55.6052 139.769 55.241 139.524 54.9735C139.279 54.7061 138.947 54.5723 138.528 54.5723C138.015 54.5723 137.595 54.7517 137.268 55.1104C136.942 55.469 136.779 55.9319 136.779 56.4989C136.779 57.0511 136.934 57.4991 137.246 57.843C137.558 58.1869 137.964 58.3589 138.465 58.3589ZM139.215 55.9812H137.466C137.488 55.673 137.591 55.4185 137.775 55.2176C137.959 55.0167 138.176 54.9162 138.428 54.9162C138.684 54.9162 138.879 54.9976 139.014 55.1603C139.148 55.323 139.215 55.5572 139.215 55.8629V55.9812ZM143.636 58.3848C144.228 58.3848 144.702 58.2449 145.06 57.9651C145.417 57.6853 145.596 57.3173 145.596 56.8613C145.596 56.6961 145.568 56.5433 145.513 56.4027C145.457 56.2622 145.374 56.1377 145.263 56.0293C145.068 55.837 144.75 55.6546 144.309 55.482C144.225 55.4499 144.162 55.4253 144.12 55.408C143.672 55.2182 143.383 55.0561 143.253 54.9218C143.124 54.7874 143.059 54.6179 143.059 54.4133C143.059 54.1323 143.152 53.9098 143.336 53.7459C143.521 53.5819 143.772 53.5 144.087 53.5C144.22 53.5 144.343 53.5129 144.457 53.5388C144.57 53.5647 144.675 53.6047 144.771 53.659L144.882 53.7847L144.997 54.5058H145.392V53.3336C145.171 53.2621 144.953 53.2085 144.74 53.1727C144.527 53.137 144.314 53.1191 144.102 53.1191C143.574 53.1191 143.151 53.2528 142.832 53.5203C142.512 53.7878 142.353 54.1385 142.353 54.5723C142.353 54.8805 142.437 55.1313 142.604 55.3248C142.772 55.5184 143.115 55.7273 143.632 55.9516C143.674 55.9689 143.735 55.9948 143.813 56.0293C144.538 56.3374 144.901 56.685 144.901 57.072C144.901 57.3506 144.798 57.5719 144.592 57.7358C144.386 57.8997 144.107 57.9817 143.754 57.9817C143.587 57.9817 143.431 57.9669 143.288 57.9373C143.145 57.9078 143.018 57.8646 142.908 57.8079L142.808 57.6785L142.719 56.8095H142.271V58.1407C142.451 58.2196 142.658 58.28 142.891 58.3219C143.124 58.3638 143.372 58.3848 143.636 58.3848ZM147.814 58.3589C148.326 58.3589 148.748 58.182 149.08 57.8282C149.412 57.4745 149.577 57.0203 149.577 56.4656C149.577 55.9109 149.412 55.4567 149.082 55.103C148.752 54.7492 148.329 54.5723 147.814 54.5723C147.296 54.5723 146.874 54.7486 146.547 55.1011C146.22 55.4536 146.057 55.9085 146.057 56.4656C146.057 57.0227 146.222 57.4776 146.551 57.8301C146.88 58.1826 147.301 58.3589 147.814 58.3589ZM147.814 58.0335C147.5 58.0335 147.248 57.8911 147.055 57.6064C146.863 57.3216 146.767 56.9414 146.767 56.4656C146.767 55.9898 146.863 55.6096 147.054 55.3248C147.245 55.0401 147.498 54.8977 147.814 54.8977C148.129 54.8977 148.384 55.0407 148.577 55.3267C148.771 55.6126 148.867 55.9923 148.867 56.4656C148.867 56.9439 148.771 57.3247 148.579 57.6082C148.387 57.8917 148.132 58.0335 147.814 58.0335ZM151.592 58.2923V58.0187L151.159 57.9817L151.022 57.8597V52.7197H150.734L149.809 52.9897V53.2263H150.394V57.8597L150.264 57.9817L149.817 58.0187V58.2923H151.592ZM153.24 58.3663C153.42 58.3663 153.61 58.3256 153.811 58.2443C154.012 58.1629 154.231 58.0372 154.468 57.8671V58.2923H155.588V58.0187L155.233 57.9817L155.096 57.8597V54.5723H154.808L153.928 54.8534V55.09H154.468V57.6563C154.31 57.7327 154.159 57.7894 154.015 57.8264C153.87 57.8634 153.728 57.8819 153.588 57.8819C153.336 57.8819 153.151 57.8172 153.033 57.6877C152.915 57.5583 152.855 57.3555 152.855 57.0794V54.5723H152.567L151.687 54.8534V55.09H152.227V57.2089C152.227 57.5836 152.314 57.8702 152.487 58.0686C152.661 58.2671 152.912 58.3663 153.24 58.3663ZM157 58.3145C157.155 58.3145 157.316 58.3003 157.484 58.272C157.652 58.2436 157.822 58.2023 157.994 58.1481V57.8671C157.901 57.8893 157.81 57.9053 157.723 57.9151C157.635 57.925 157.551 57.9299 157.469 57.9299C157.233 57.9299 157.069 57.8739 156.977 57.7617C156.886 57.6495 156.841 57.4295 156.841 57.1016V55.1048H157.994V54.7498H156.841V53.9437H156.56L156.234 54.65L155.735 54.8682V55.1048H156.212V57.5491C156.212 57.84 156.271 58.0403 156.388 58.15C156.505 58.2597 156.709 58.3145 157 58.3145ZM158.988 53.8032C159.111 53.8032 159.215 53.7613 159.301 53.6775C159.386 53.5936 159.428 53.4913 159.428 53.3705C159.428 53.2497 159.386 53.1462 159.301 53.0599C159.215 52.9736 159.111 52.9305 158.988 52.9305C158.867 52.9305 158.764 52.973 158.679 53.0581C158.594 53.1431 158.552 53.2473 158.552 53.3705C158.552 53.4913 158.594 53.5936 158.679 53.6775C158.764 53.7613 158.867 53.8032 158.988 53.8032ZM159.79 58.2923V58.0187L159.384 57.9817L159.254 57.8597V54.613H158.958L158.089 54.8829V55.1196H158.618V57.8597L158.489 57.9817L158.089 58.0187V58.2923H159.79ZM161.727 58.3589C162.24 58.3589 162.662 58.182 162.994 57.8282C163.325 57.4745 163.491 57.0203 163.491 56.4656C163.491 55.9109 163.326 55.4567 162.995 55.103C162.665 54.7492 162.242 54.5723 161.727 54.5723C161.209 54.5723 160.787 54.7486 160.461 55.1011C160.134 55.4536 159.971 55.9085 159.971 56.4656C159.971 57.0227 160.135 57.4776 160.464 57.8301C160.793 58.1826 161.214 58.3589 161.727 58.3589ZM161.727 58.0335C161.414 58.0335 161.161 57.8911 160.969 57.6064C160.777 57.3216 160.681 56.9414 160.681 56.4656C160.681 55.9898 160.776 55.6096 160.967 55.3248C161.158 55.0401 161.412 54.8977 161.727 54.8977C162.043 54.8977 162.297 55.0407 162.491 55.3267C162.684 55.6126 162.781 55.9923 162.781 56.4656C162.781 56.9439 162.685 57.3247 162.493 57.6082C162.3 57.8917 162.045 58.0335 161.727 58.0335ZM165.405 58.2923V58.0187L165.043 57.9817L164.914 57.8597V55.323C165.076 55.2392 165.228 55.1769 165.368 55.1362C165.509 55.0956 165.64 55.0752 165.76 55.0752C166.037 55.0752 166.233 55.1344 166.35 55.2527C166.467 55.3711 166.526 55.572 166.526 55.8555V57.8597L166.396 57.9817L166.034 58.0187V58.2923H167.691V58.0187L167.284 57.9817L167.155 57.8597V55.726C167.155 55.3513 167.067 55.0654 166.892 54.8682C166.717 54.6709 166.464 54.5723 166.134 54.5723C165.993 54.5723 165.831 54.6062 165.646 54.674C165.461 54.7418 165.217 54.8595 164.914 55.0272V54.613H164.625L163.745 54.8829V55.1196H164.285V57.8597L164.156 57.9817L163.745 58.0187V58.2923H165.405Z" fill="white"/>
<path fill-rule="evenodd" clip-rule="evenodd" d="M31 28H62.5546V59.5546H31V28ZM54.485 36.0693L39.068 36.0676V51.4862L39.0628 51.4909L39.063 51.492H54.492L54.4908 36.0638L54.4901 36.0637L54.485 36.0693Z" fill="white"/>
</svg>
