<svg width="199" height="88" viewBox="0 0 199 88" fill="none" xmlns="http://www.w3.org/2000/svg">
<path d="M78.7379 49.7811V40.2876H80.9319C82.5785 40.2876 83.9814 39.6988 85.1404 38.5214C86.2995 37.3439 86.8791 35.9272 86.8791 34.2714V30.6147C86.8791 28.8945 86.3685 27.4778 85.3474 26.3647C84.2527 25.1964 82.7809 24.6123 80.9319 24.6123H74.957V49.7811H78.7379ZM81.0284 36.5344H78.7379V28.4897H81.0284C81.6908 28.4897 82.2174 28.6898 82.6084 29.09C82.9994 29.4901 83.1948 30.0214 83.1948 30.6837V34.3542C83.1948 34.9521 82.9856 35.465 82.567 35.8927C82.1484 36.3205 81.6356 36.5344 81.0284 36.5344ZM92.9062 49.7811L93.8307 43.9994H97.7909L98.6878 49.7811H102.662L98.4533 24.6123H93.2236L88.9598 49.7811H92.9062ZM97.2252 40.3014H94.4102L95.8177 30.3801L97.2252 40.3014ZM111.131 49.7811V40.2876H113.325C114.972 40.2876 116.375 39.6988 117.534 38.5214C118.693 37.3439 119.273 35.9272 119.273 34.2714V30.6147C119.273 28.8945 118.762 27.4778 117.741 26.3647C116.646 25.1964 115.174 24.6123 113.325 24.6123H107.35V49.7811H111.131ZM113.422 36.5344H111.131V28.4897H113.422C114.084 28.4897 114.611 28.6898 115.002 29.09C115.393 29.4901 115.588 30.0214 115.588 30.6837V34.3542C115.588 34.9521 115.379 35.465 114.96 35.8927C114.542 36.3205 114.029 36.5344 113.422 36.5344ZM134.586 49.7811V45.9864H127.576V39.1009H132.696V35.2925H127.576V28.4069H134.586V24.6123H123.796V49.7811H134.586ZM142.476 49.7811V40.2876H144.656C144.776 40.2876 144.891 40.283 145.001 40.2738L147.319 49.7811H151.418L148.603 38.7835C149.955 37.5601 150.631 36.056 150.631 34.2714V30.6147C150.631 28.8025 150.194 27.3858 149.32 26.3647C148.336 25.1964 146.786 24.6123 144.67 24.6123H138.695V49.7811H142.476ZM144.767 36.5344H142.476V28.4897H144.767C146.211 28.4897 146.933 29.2211 146.933 30.6837V34.3542C146.933 34.9521 146.724 35.465 146.305 35.8927C145.887 36.3205 145.374 36.5344 144.767 36.5344ZM167.007 49.7811V46.014H160.025L167.007 28.4069V24.6123H155.941V28.4069H162.937L155.941 46.014V49.7811H167.007Z" fill="white"/>
<path d="M77.7586 62.6713V62.118H75.0189V56.585H74.3496V62.6713H77.7586ZM80.2841 62.8141C80.7244 62.8141 81.1052 62.7263 81.4264 62.5508C81.7477 62.3753 82.0065 62.1329 82.2028 61.8235L81.7209 61.5022C81.5781 61.7402 81.3892 61.9261 81.1542 62.06C80.9192 62.1938 80.6233 62.2608 80.2663 62.2608C79.826 62.2608 79.478 62.1091 79.2222 61.8056C78.9663 61.5022 78.8265 61.1363 78.8027 60.708H82.2385C82.2445 60.6485 82.2474 60.5622 82.2474 60.4492C82.2474 60.0565 82.1612 59.701 81.9886 59.3828C81.8161 59.0645 81.5781 58.8131 81.2747 58.6287C80.9713 58.4442 80.6322 58.352 80.2574 58.352C79.8588 58.352 79.5033 58.4472 79.1909 58.6376C78.8786 58.828 78.6347 59.0927 78.4592 59.4318C78.2837 59.771 78.1959 60.1547 78.1959 60.583C78.1959 61.0114 78.2851 61.3951 78.4636 61.7343C78.6421 62.0734 78.889 62.3381 79.2043 62.5285C79.5196 62.7189 79.8796 62.8141 80.2841 62.8141ZM81.6406 60.2082H78.8384C78.9039 59.8334 79.0601 59.5226 79.307 59.2757C79.5539 59.0288 79.8707 58.9053 80.2574 58.9053C80.656 58.9053 80.9713 59.0139 81.2033 59.231C81.4354 59.4482 81.5811 59.7739 81.6406 60.2082ZM84.9604 62.8141C85.2578 62.8141 85.5315 62.7471 85.7814 62.6133C86.0313 62.4794 86.2425 62.2935 86.415 62.0555V62.6713H87.0218V58.4948H86.415V59.1195C86.2425 58.8756 86.0298 58.6867 85.7769 58.5528C85.5241 58.4189 85.2459 58.352 84.9425 58.352C84.5439 58.352 84.1884 58.4472 83.8761 58.6376C83.5638 58.828 83.3198 59.0912 83.1443 59.4274C82.9688 59.7635 82.8811 60.1458 82.8811 60.5741C82.8811 61.0084 82.9703 61.3951 83.1488 61.7343C83.3273 62.0734 83.5742 62.3381 83.8895 62.5285C84.2048 62.7189 84.5618 62.8141 84.9604 62.8141ZM84.9425 62.2608C84.6629 62.2608 84.413 62.1894 84.1929 62.0466C83.9728 61.9038 83.8002 61.7045 83.6753 61.4487C83.5504 61.1929 83.4879 60.9013 83.4879 60.5741C83.4879 60.2529 83.5504 59.9658 83.6753 59.7129C83.8002 59.4601 83.9728 59.2623 84.1929 59.1195C84.413 58.9767 84.6629 58.9053 84.9425 58.9053C85.2281 58.9053 85.4824 58.9767 85.7055 59.1195C85.9286 59.2623 86.1027 59.4616 86.2276 59.7174C86.3525 59.9732 86.415 60.2618 86.415 60.583C86.415 60.9043 86.3525 61.1929 86.2276 61.4487C86.1027 61.7045 85.9286 61.9038 85.7055 62.0466C85.4824 62.1894 85.2281 62.2608 84.9425 62.2608ZM89.9668 62.8141C90.2643 62.8141 90.5379 62.7471 90.7878 62.6133C91.0377 62.4794 91.2489 62.2935 91.4214 62.0555V62.6713H92.0283V56.1924H91.4214V59.1195C91.2489 58.8756 91.0362 58.6867 90.7834 58.5528C90.5305 58.4189 90.2524 58.352 89.949 58.352C89.5503 58.352 89.1949 58.4472 88.8825 58.6376C88.5702 58.828 88.3263 59.0912 88.1507 59.4274C87.9752 59.7635 87.8875 60.1458 87.8875 60.5741C87.8875 61.0084 87.9767 61.3951 88.1552 61.7343C88.3337 62.0734 88.5806 62.3381 88.8959 62.5285C89.2112 62.7189 89.5682 62.8141 89.9668 62.8141ZM89.949 62.2608C89.6693 62.2608 89.4195 62.1894 89.1993 62.0466C88.9792 61.9038 88.8067 61.7045 88.6817 61.4487C88.5568 61.1929 88.4943 60.9013 88.4943 60.5741C88.4943 60.2529 88.5568 59.9658 88.6817 59.7129C88.8067 59.4601 88.9792 59.2623 89.1993 59.1195C89.4195 58.9767 89.6693 58.9053 89.949 58.9053C90.2345 58.9053 90.4889 58.9767 90.712 59.1195C90.9351 59.2623 91.1091 59.4616 91.234 59.7174C91.359 59.9732 91.4214 60.2618 91.4214 60.583C91.4214 60.9043 91.359 61.1929 91.234 61.4487C91.1091 61.7045 90.9351 61.9038 90.712 62.0466C90.4889 62.1894 90.2345 62.2608 89.949 62.2608ZM93.7863 57.6827C93.9172 57.6827 94.0302 57.6351 94.1254 57.5399C94.2206 57.4447 94.2682 57.3317 94.2682 57.2008C94.2682 57.064 94.2206 56.9494 94.1254 56.8572C94.0302 56.765 93.9172 56.7189 93.7863 56.7189C93.6495 56.7189 93.535 56.765 93.4427 56.8572C93.3505 56.9494 93.3044 57.061 93.3044 57.1919C93.3044 57.3287 93.3505 57.4447 93.4427 57.5399C93.535 57.6351 93.6495 57.6827 93.7863 57.6827ZM94.0897 62.6713V58.4948H93.4829V62.6713H94.0897ZM96.1512 62.6713V60.583C96.1512 60.0714 96.2583 59.6639 96.4725 59.3604C96.6867 59.057 97.0079 58.9053 97.4363 58.9053C98.174 58.9053 98.5429 59.3188 98.5429 60.1458V62.6713H99.1497V59.878C99.1497 59.5627 99.0768 59.289 98.9311 59.057C98.7853 58.825 98.589 58.6495 98.3421 58.5305C98.0952 58.4115 97.826 58.352 97.5344 58.352C97.2251 58.352 96.9529 58.4249 96.7179 58.5707C96.4829 58.7164 96.294 58.9232 96.1512 59.1909V58.4948H95.5444V62.6713H96.1512ZM102.38 64.4561C102.737 64.4561 103.055 64.3728 103.335 64.2062C103.615 64.0396 103.832 63.8091 103.987 63.5146C104.141 63.2201 104.219 62.8855 104.219 62.5107V58.4948H103.612V59.1195C103.439 58.8756 103.227 58.6867 102.974 58.5528C102.721 58.4189 102.443 58.352 102.139 58.352C101.741 58.352 101.385 58.4472 101.073 58.6376C100.761 58.828 100.517 59.0912 100.341 59.4274C100.166 59.7635 100.078 60.1458 100.078 60.5741C100.078 61.0084 100.167 61.3951 100.346 61.7343C100.524 62.0734 100.771 62.3381 101.086 62.5285C101.402 62.7189 101.759 62.8141 102.157 62.8141C102.455 62.8141 102.728 62.7471 102.978 62.6133C103.228 62.4794 103.439 62.2935 103.612 62.0555V62.5107C103.612 62.9152 103.497 63.2484 103.268 63.5102C103.039 63.7719 102.743 63.9028 102.38 63.9028H100.649V64.4561H102.38ZM102.139 62.2608C101.86 62.2608 101.61 62.1894 101.39 62.0466C101.17 61.9038 100.997 61.7045 100.872 61.4487C100.747 61.1929 100.685 60.9013 100.685 60.5741C100.685 60.2529 100.747 59.9658 100.872 59.7129C100.997 59.4601 101.17 59.2623 101.39 59.1195C101.61 58.9767 101.86 58.9053 102.139 58.9053C102.425 58.9053 102.679 58.9767 102.902 59.1195C103.125 59.2623 103.299 59.4616 103.424 59.7174C103.549 59.9732 103.612 60.2618 103.612 60.583C103.612 60.9043 103.549 61.1929 103.424 61.4487C103.299 61.7045 103.125 61.9038 102.902 62.0466C102.679 62.1894 102.425 62.2608 102.139 62.2608ZM108.154 62.6713V60.3421H109.448C110.013 60.3421 110.467 60.1755 110.809 59.8423C111.151 59.5092 111.322 59.0511 111.322 58.468C111.322 57.879 111.159 57.418 110.831 57.0848C110.504 56.7516 110.067 56.585 109.52 56.585H107.485V62.6713H108.154ZM109.43 59.7888H108.154V57.1383H109.43C109.829 57.1383 110.132 57.2514 110.341 57.4775C110.549 57.7035 110.653 58.0337 110.653 58.468C110.653 58.9023 110.549 59.231 110.341 59.4541C110.132 59.6772 109.829 59.7888 109.43 59.7888ZM113.928 62.8141C114.225 62.8141 114.499 62.7471 114.749 62.6133C114.999 62.4794 115.21 62.2935 115.383 62.0555V62.6713H115.989V58.4948H115.383V59.1195C115.21 58.8756 114.997 58.6867 114.745 58.5528C114.492 58.4189 114.214 58.352 113.91 58.352C113.512 58.352 113.156 58.4472 112.844 58.6376C112.531 58.828 112.287 59.0912 112.112 59.4274C111.936 59.7635 111.849 60.1458 111.849 60.5741C111.849 61.0084 111.938 61.3951 112.116 61.7343C112.295 62.0734 112.542 62.3381 112.857 62.5285C113.172 62.7189 113.529 62.8141 113.928 62.8141ZM113.91 62.2608C113.631 62.2608 113.381 62.1894 113.161 62.0466C112.94 61.9038 112.768 61.7045 112.643 61.4487C112.518 61.1929 112.456 60.9013 112.456 60.5741C112.456 60.2529 112.518 59.9658 112.643 59.7129C112.768 59.4601 112.94 59.2623 113.161 59.1195C113.381 58.9767 113.631 58.9053 113.91 58.9053C114.196 58.9053 114.45 58.9767 114.673 59.1195C114.896 59.2623 115.07 59.4616 115.195 59.7174C115.32 59.9732 115.383 60.2618 115.383 60.583C115.383 60.9043 115.32 61.1929 115.195 61.4487C115.07 61.7045 114.896 61.9038 114.673 62.0466C114.45 62.1894 114.196 62.2608 113.91 62.2608ZM117.73 64.4561V62.0466C117.902 62.2905 118.115 62.4794 118.368 62.6133C118.621 62.7471 118.899 62.8141 119.202 62.8141C119.601 62.8141 119.956 62.7189 120.269 62.5285C120.581 62.3381 120.825 62.0749 121 61.7387C121.176 61.4026 121.264 61.0203 121.264 60.592C121.264 60.1577 121.174 59.771 120.996 59.4318C120.817 59.0927 120.571 58.828 120.255 58.6376C119.94 58.4472 119.583 58.352 119.184 58.352C118.887 58.352 118.613 58.4189 118.363 58.5528C118.113 58.6867 117.902 58.8726 117.73 59.1106V58.4948H117.123V64.4561H117.73ZM119.202 62.2608C118.917 62.2608 118.662 62.1894 118.439 62.0466C118.216 61.9038 118.042 61.7045 117.917 61.4487C117.792 61.1929 117.73 60.9043 117.73 60.583C117.73 60.2618 117.792 59.9732 117.917 59.7174C118.042 59.4616 118.216 59.2623 118.439 59.1195C118.662 58.9767 118.917 58.9053 119.202 58.9053C119.482 58.9053 119.732 58.9767 119.952 59.1195C120.172 59.2623 120.344 59.4616 120.469 59.7174C120.594 59.9732 120.657 60.2648 120.657 60.592C120.657 60.9132 120.594 61.2003 120.469 61.4531C120.344 61.706 120.172 61.9038 119.952 62.0466C119.732 62.1894 119.482 62.2608 119.202 62.2608ZM123.95 62.8141C124.39 62.8141 124.771 62.7263 125.092 62.5508C125.413 62.3753 125.672 62.1329 125.868 61.8235L125.387 61.5022C125.244 61.7402 125.055 61.9261 124.82 62.06C124.585 62.1938 124.289 62.2608 123.932 62.2608C123.492 62.2608 123.144 62.1091 122.888 61.8056C122.632 61.5022 122.492 61.1363 122.468 60.708H125.904C125.91 60.6485 125.913 60.5622 125.913 60.4492C125.913 60.0565 125.827 59.701 125.654 59.3828C125.482 59.0645 125.244 58.8131 124.94 58.6287C124.637 58.4442 124.298 58.352 123.923 58.352C123.524 58.352 123.169 58.4472 122.857 58.6376C122.544 58.828 122.3 59.0927 122.125 59.4318C121.949 59.771 121.862 60.1547 121.862 60.583C121.862 61.0114 121.951 61.3951 122.129 61.7343C122.308 62.0734 122.555 62.3381 122.87 62.5285C123.185 62.7189 123.545 62.8141 123.95 62.8141ZM125.306 60.2082H122.504C122.57 59.8334 122.726 59.5226 122.973 59.2757C123.22 59.0288 123.536 58.9053 123.923 58.9053C124.322 58.9053 124.637 59.0139 124.869 59.231C125.101 59.4482 125.247 59.7739 125.306 60.2082ZM127.412 62.6713V60.6723C127.412 60.3034 127.479 59.9836 127.613 59.7129C127.747 59.4422 127.924 59.2355 128.144 59.0927C128.364 58.9499 128.602 58.8785 128.858 58.8785C129.007 58.8785 129.144 58.9083 129.269 58.9678V58.4145C129.138 58.3728 129.001 58.352 128.858 58.352C128.549 58.352 128.271 58.4383 128.024 58.6108C127.777 58.7833 127.573 59.0243 127.412 59.3337V58.4948H126.806V62.6713H127.412ZM134.23 62.8141C134.718 62.8141 135.139 62.6921 135.493 62.4482C135.847 62.2043 136.131 61.8503 136.345 61.3862L135.783 61.0471C135.581 61.4457 135.362 61.7387 135.127 61.9261C134.892 62.1135 134.564 62.2072 134.141 62.2072C133.802 62.2072 133.505 62.1046 133.249 61.8994C132.993 61.6941 132.797 61.3981 132.66 61.0114C132.523 60.6247 132.454 60.1666 132.454 59.6371C132.454 58.828 132.605 58.1958 132.905 57.7407C133.206 57.2856 133.621 57.058 134.15 57.058C134.519 57.058 134.831 57.1339 135.087 57.2856C135.343 57.4373 135.566 57.6887 135.756 58.0397L136.292 57.7273C136.09 57.3228 135.808 57.0089 135.449 56.7858C135.089 56.5627 134.656 56.4512 134.15 56.4512C133.656 56.4512 133.229 56.5776 132.869 56.8305C132.51 57.0833 132.233 57.4492 132.04 57.9281C131.846 58.407 131.749 58.9797 131.749 59.646C131.749 60.3064 131.849 60.8731 132.048 61.3461C132.248 61.819 132.533 62.1819 132.905 62.4348C133.277 62.6876 133.719 62.8141 134.23 62.8141ZM139.04 62.8141C139.439 62.8141 139.795 62.7189 140.107 62.5285C140.419 62.3381 140.663 62.0734 140.839 61.7343C141.014 61.3951 141.102 61.0114 141.102 60.583C141.102 60.1547 141.013 59.771 140.834 59.4318C140.656 59.0927 140.409 58.828 140.094 58.6376C139.778 58.4472 139.421 58.352 139.023 58.352C138.624 58.352 138.269 58.4472 137.956 58.6376C137.644 58.828 137.4 59.0912 137.224 59.4274C137.049 59.7635 136.961 60.1458 136.961 60.5741C136.961 61.0025 137.05 61.3877 137.229 61.7298C137.407 62.0719 137.654 62.3381 137.97 62.5285C138.285 62.7189 138.642 62.8141 139.04 62.8141ZM139.023 62.2608C138.743 62.2608 138.493 62.1894 138.273 62.0466C138.053 61.9038 137.88 61.7045 137.755 61.4487C137.63 61.1929 137.568 60.9013 137.568 60.5741C137.568 60.2529 137.63 59.9658 137.755 59.7129C137.88 59.4601 138.053 59.2623 138.273 59.1195C138.493 58.9767 138.743 58.9053 139.023 58.9053C139.308 58.9053 139.563 58.9767 139.786 59.1195C140.009 59.2623 140.183 59.4616 140.308 59.7174C140.433 59.9732 140.495 60.2618 140.495 60.583C140.495 60.9043 140.433 61.1929 140.308 61.4487C140.183 61.7045 140.009 61.9038 139.786 62.0466C139.563 62.1894 139.308 62.2608 139.023 62.2608ZM142.565 62.6713V60.583C142.565 60.0714 142.656 59.6639 142.838 59.3604C143.019 59.057 143.291 58.9053 143.654 58.9053C143.922 58.9053 144.139 59.002 144.306 59.1953C144.472 59.3887 144.556 59.7055 144.556 60.1458V62.6713H145.162V60.3153C145.192 59.881 145.298 59.5374 145.479 59.2846C145.661 59.0317 145.915 58.9053 146.242 58.9053C146.51 58.9053 146.727 59.002 146.894 59.1953C147.06 59.3887 147.144 59.7055 147.144 60.1458V62.6713H147.75V59.878C147.75 59.4021 147.622 59.0288 147.367 58.7581C147.111 58.4874 146.79 58.352 146.403 58.352C146.105 58.352 145.844 58.4353 145.618 58.6019C145.391 58.7685 145.213 59.0005 145.082 59.298C144.993 58.9946 144.835 58.761 144.609 58.5974C144.383 58.4338 144.118 58.352 143.815 58.352C143.541 58.352 143.299 58.4204 143.088 58.5573C142.876 58.6941 142.702 58.8904 142.565 59.1463V58.4948H141.959V62.6713H142.565ZM149.446 64.4561V62.0466C149.619 62.2905 149.831 62.4794 150.084 62.6133C150.337 62.7471 150.615 62.8141 150.918 62.8141C151.317 62.8141 151.673 62.7189 151.985 62.5285C152.297 62.3381 152.541 62.0749 152.717 61.7387C152.892 61.4026 152.98 61.0203 152.98 60.592C152.98 60.1577 152.891 59.771 152.712 59.4318C152.534 59.0927 152.287 58.828 151.971 58.6376C151.656 58.4472 151.299 58.352 150.901 58.352C150.603 58.352 150.329 58.4189 150.08 58.5528C149.83 58.6867 149.619 58.8726 149.446 59.1106V58.4948H148.839V64.4561H149.446ZM150.918 62.2608C150.633 62.2608 150.379 62.1894 150.155 62.0466C149.932 61.9038 149.758 61.7045 149.633 61.4487C149.508 61.1929 149.446 60.9043 149.446 60.583C149.446 60.2618 149.508 59.9732 149.633 59.7174C149.758 59.4616 149.932 59.2623 150.155 59.1195C150.379 58.9767 150.633 58.9053 150.918 58.9053C151.198 58.9053 151.448 58.9767 151.668 59.1195C151.888 59.2623 152.061 59.4616 152.186 59.7174C152.311 59.9732 152.373 60.2648 152.373 60.592C152.373 60.9132 152.311 61.2003 152.186 61.4531C152.061 61.706 151.888 61.9038 151.668 62.0466C151.448 62.1894 151.198 62.2608 150.918 62.2608ZM155.657 62.8141C155.955 62.8141 156.228 62.7471 156.478 62.6133C156.728 62.4794 156.939 62.2935 157.112 62.0555V62.6713H157.719V58.4948H157.112V59.1195C156.939 58.8756 156.727 58.6867 156.474 58.5528C156.221 58.4189 155.943 58.352 155.639 58.352C155.241 58.352 154.885 58.4472 154.573 58.6376C154.261 58.828 154.017 59.0912 153.841 59.4274C153.666 59.7635 153.578 60.1458 153.578 60.5741C153.578 61.0084 153.667 61.3951 153.846 61.7343C154.024 62.0734 154.271 62.3381 154.586 62.5285C154.902 62.7189 155.259 62.8141 155.657 62.8141ZM155.639 62.2608C155.36 62.2608 155.11 62.1894 154.89 62.0466C154.67 61.9038 154.497 61.7045 154.372 61.4487C154.247 61.1929 154.185 60.9013 154.185 60.5741C154.185 60.2529 154.247 59.9658 154.372 59.7129C154.497 59.4601 154.67 59.2623 154.89 59.1195C155.11 58.9767 155.36 58.9053 155.639 58.9053C155.925 58.9053 156.179 58.9767 156.402 59.1195C156.625 59.2623 156.799 59.4616 156.924 59.7174C157.049 59.9732 157.112 60.2618 157.112 60.583C157.112 60.9043 157.049 61.1929 156.924 61.4487C156.799 61.7045 156.625 61.9038 156.402 62.0466C156.179 62.1894 155.925 62.2608 155.639 62.2608ZM159.45 62.6713V60.583C159.45 60.0714 159.557 59.6639 159.771 59.3604C159.985 59.057 160.307 58.9053 160.735 58.9053C161.473 58.9053 161.842 59.3188 161.842 60.1458V62.6713H162.448V59.878C162.448 59.5627 162.376 59.289 162.23 59.057C162.084 58.825 161.888 58.6495 161.641 58.5305C161.394 58.4115 161.125 58.352 160.833 58.352C160.524 58.352 160.252 58.4249 160.017 58.5707C159.782 58.7164 159.593 58.9232 159.45 59.1909V58.4948H158.843V62.6713H159.45ZM164.822 64.4561L167.08 58.4948H166.509L165.179 61.9574L163.796 58.4948H163.162L164.876 62.7516L164.215 64.4561H164.822Z" fill="white"/>
<path fill-rule="evenodd" clip-rule="evenodd" d="M53.3187 30.4443V59.3973C51.0277 60.8082 48.3003 61.9704 45.2866 62.7332C42.7983 63.364 40.3531 63.6618 38.0674 63.6618C35.8637 63.6618 33.8084 63.3852 32 62.8607V33.908C32.001 33.908 32.0027 33.9087 32.0036 33.9087C32.677 34.1036 33.3844 34.2645 34.1216 34.3895C34.8037 34.5055 35.5111 34.5907 36.2396 34.6432C36.8354 34.6876 37.4453 34.7099 38.0674 34.7099C40.354 34.7099 42.7983 34.411 45.2866 33.781C48.3003 33.0172 51.0277 31.8559 53.3187 30.4443ZM49.0823 37.0911C48.9032 37.152 48.7232 37.2117 48.5423 37.2701L49.0822 37.2698L49.0823 37.0911Z" fill="white"/>
<path fill-rule="evenodd" clip-rule="evenodd" d="M61.2527 24V55.9779C58.6953 57.5362 55.6508 58.8199 52.2867 59.6624C49.509 60.359 46.7794 60.688 44.228 60.688C41.768 60.688 39.4737 60.3824 37.4551 59.8032V27.8255C37.4562 27.8255 37.4581 27.8263 37.4591 27.8263C38.2108 28.0415 39.0004 28.2193 39.8234 28.3573C40.5848 28.4854 41.3744 28.5796 42.1876 28.6375C42.8528 28.6866 43.5336 28.7112 44.228 28.7112C46.7805 28.7112 49.509 28.3811 52.2867 27.6853C55.6508 26.8417 58.6953 25.5591 61.2527 24Z" fill="white"/>
</svg>
