<svg width="200" height="88" viewBox="0 0 200 88" fill="none" xmlns="http://www.w3.org/2000/svg">
<path opacity="0.5" d="M61.8612 37.1388L52.2663 42.6588L42.6953 37.1388L52.2663 31.5996L61.8612 37.1388Z" fill="white"/>
<path d="M50.1321 43.885L41.623 48.8013V38.9688L50.1321 43.885Z" fill="white"/>
<path opacity="0.5" d="M61.8602 50.6324L52.2844 56.1716L42.6895 50.6324L52.2844 45.1172L61.8602 50.6324Z" fill="white"/>
<path d="M39.8216 52.156L51.4874 58.8787C51.9967 59.171 52.6213 59.171 53.1306 58.8787L64.8492 52.1224C65.9447 51.4899 65.9399 49.9183 64.8492 49.2906L55.4849 43.9047L64.6907 38.6099C65.7861 37.9822 65.7861 36.4058 64.6907 35.7781L53.1162 29.1177C52.6069 28.8254 51.9823 28.8254 51.4778 29.1177L39.8216 35.826C39.3123 36.1183 39 36.6597 39 37.2443V50.7424C39 51.327 39.3123 51.8637 39.8216 52.156ZM52.2657 32.1891L60.8373 37.1149L52.2657 42.0456L43.6942 37.1197L52.2657 32.1891ZM49.1091 43.8856L42.1375 47.9154V39.8558L49.1091 43.8856ZM52.2657 55.582L43.7182 50.6562L52.285 45.7256L60.8565 50.6514L52.2657 55.582Z" fill="white"/>
<path d="M80.8865 39.0206C81.7465 39.0206 82.5681 39.2458 83.284 39.6531C83.9615 40.0412 84.8215 39.9166 85.3741 39.3656C86.1716 38.5702 86.0323 37.2189 85.0473 36.6439C83.7981 35.9299 82.3807 35.5418 80.8865 35.5418C76.2932 35.5418 72.584 39.2649 72.584 43.8649C72.584 48.4458 76.3172 52.1881 80.8865 52.1881C82.3615 52.1881 83.7981 51.7999 85.0473 51.086C86.0323 50.5158 86.1764 49.1645 85.3741 48.3883C84.8215 47.8372 83.9615 47.7127 83.284 48.1008C82.5681 48.5081 81.7273 48.7333 80.8865 48.7333C78.2199 48.7333 76.0482 46.5435 76.0482 43.8649C76.0482 41.2056 78.2199 39.0206 80.8865 39.0206ZM100.917 35.561C99.9515 35.561 99.1731 36.3372 99.1731 37.3004V43.8027C99.1731 46.5243 97.429 48.7285 95.2957 48.7285C93.1625 48.7285 91.4184 46.5195 91.4184 43.8027V37.3004C91.4184 36.3372 90.64 35.561 89.6743 35.561C88.7085 35.561 87.9302 36.3372 87.9302 37.3004V43.8027C87.9302 48.4218 91.231 52.1881 95.2717 52.1881C99.3317 52.1881 102.613 48.4266 102.613 43.8027V37.3004C102.661 36.3372 101.883 35.561 100.917 35.561ZM130.36 35.561C128.616 35.561 126.978 36.1312 125.666 37.0752V32.087C125.666 31.1239 124.888 30.3477 123.922 30.3477C122.956 30.3477 122.178 31.1239 122.178 32.087V43.8649C122.178 48.4458 125.849 52.1881 130.36 52.1881C134.872 52.1881 138.543 48.4649 138.543 43.8649C138.524 39.3033 134.853 35.561 130.36 35.561ZM130.36 48.7524C127.756 48.7524 125.666 46.5627 125.666 43.8841C125.666 41.2056 127.78 39.0158 130.36 39.0158C132.965 39.0158 135.074 41.2056 135.074 43.8841C135.059 46.5627 132.945 48.7524 130.36 48.7524ZM142.069 35.561C141.104 35.561 140.325 36.3372 140.325 37.3004V50.4679C140.325 51.431 141.104 52.2072 142.069 52.2072C143.035 52.2072 143.813 51.431 143.813 50.4679V37.3004C143.813 36.3372 143.035 35.561 142.069 35.561ZM112.42 35.561C107.908 35.561 104.237 39.2841 104.237 43.8841C104.237 48.4649 108.052 52.2072 112.746 52.2072C114.265 52.2072 115.74 51.8191 117.013 51.0812C117.998 50.5302 118.161 49.1789 117.383 48.3835C116.83 47.8324 115.99 47.6887 115.312 48.0768C114.553 48.5081 113.674 48.7524 112.77 48.7524C110.618 48.7524 108.792 47.4443 108.057 45.6235H118.882C119.848 45.6235 120.626 44.8472 120.626 43.8841C120.602 39.3033 116.931 35.561 112.42 35.561ZM108.014 42.1447C108.691 40.3239 110.411 39.0158 112.42 39.0158C114.428 39.0158 116.153 40.3239 116.826 42.1447H108.014ZM142.069 30.3908C141.104 30.3908 140.325 31.167 140.325 32.1302C140.325 33.0933 141.104 33.8695 142.069 33.8695C143.035 33.8695 143.813 33.0933 143.813 32.1302C143.813 31.1479 143.035 30.3908 142.069 30.3908ZM153.798 35.561C149.286 35.561 145.615 39.2841 145.615 43.8841C145.615 48.4649 149.286 52.2072 153.798 52.2072C155.542 52.2072 157.18 51.637 158.511 50.6739V55.662C158.511 56.6252 159.289 57.4014 160.255 57.4014C161.221 57.4014 161.999 56.6252 161.999 55.662V43.8841C161.98 39.3033 158.309 35.561 153.798 35.561ZM153.798 48.7524C151.193 48.7524 149.084 46.5627 149.084 43.8841C149.084 41.2056 151.198 39.0158 153.798 39.0158C156.402 39.0158 158.511 41.2056 158.511 43.8841C158.511 46.5627 156.402 48.7524 153.798 48.7524Z" fill="white"/>
</svg>
