<svg width="40" height="40" viewBox="0 0 40 40" fill="none" xmlns="http://www.w3.org/2000/svg">
<circle cx="20" cy="20" r="20" fill="#141313" fill-opacity="0.05"/>
<path fill-rule="evenodd" clip-rule="evenodd" d="M13.3334 14.1667C13.3334 13.7064 13.7065 13.3334 14.1667 13.3334H25.8334C26.2937 13.3334 26.6667 13.7064 26.6667 14.1667V25.8334C26.6667 26.2936 26.2937 26.6667 25.8334 26.6667L25.0001 26.6667C25.0001 24.3655 23.1346 22.5 20.8334 22.5H19.1667C16.8656 22.5 15.0001 24.3655 15.0001 26.6667L14.1667 26.6667C13.7065 26.6667 13.3334 26.2936 13.3334 25.8334V14.1667ZM16.6667 26.6667H23.3334C23.3334 25.286 22.2141 24.1667 20.8334 24.1667H19.1667C17.786 24.1667 16.6667 25.286 16.6667 26.6667ZM14.1667 11.6667C12.786 11.6667 11.6667 12.786 11.6667 14.1667V25.8334C11.6667 27.2141 12.786 28.3334 14.1667 28.3334H25.8334C27.2141 28.3334 28.3334 27.2141 28.3334 25.8334V14.1667C28.3334 12.786 27.2141 11.6667 25.8334 11.6667H14.1667ZM18.3334 18.3334C18.3334 19.2538 19.0796 20 20.0001 20C20.9206 20 21.6667 19.2538 21.6667 18.3334C21.6667 17.4129 20.9206 16.6667 20.0001 16.6667C19.0796 16.6667 18.3334 17.4129 18.3334 18.3334ZM20.0001 15C18.1591 15 16.6667 16.4924 16.6667 18.3334C16.6667 20.1743 18.1591 21.6667 20.0001 21.6667C21.841 21.6667 23.3334 20.1743 23.3334 18.3334C23.3334 16.4924 21.841 15 20.0001 15Z" fill="#141313"/>
</svg>
